<?xml version="1.0" standalone="no"?>
<!DOCTYPE svg PUBLIC "-//W3C//DTD SVG 20010904//EN"
 "http://www.w3.org/TR/2001/REC-SVG-20010904/DTD/svg10.dtd">
<svg version="1.0" xmlns="http://www.w3.org/2000/svg"
 width="462.000000pt" height="189.000000pt" viewBox="0 0 462.000000 189.000000"
 preserveAspectRatio="xMidYMid meet">

<g transform="translate(0.000000,189.000000) scale(0.100000,-0.100000)"
fill="#000000" stroke="none">
<path d="M1415 1491 c-86 -52 -160 -307 -137 -469 l9 -63 -50 -67 c-72 -96
-210 -229 -296 -286 -114 -76 -206 -108 -326 -114 -122 -5 -192 8 -284 54 -77
39 -152 112 -181 177 -47 107 -45 244 7 338 51 95 128 140 249 147 158 9 336
-75 512 -241 l52 -50 53 28 c106 57 137 77 131 86 -3 5 -23 0 -44 -11 -66 -34
-84 -28 -205 67 -183 143 -307 186 -471 163 -180 -25 -308 -129 -349 -285 -65
-250 85 -474 355 -531 238 -50 518 92 767 390 42 50 79 92 82 94 10 4 61 -242
68 -324 3 -45 1 -84 -7 -108 -14 -44 -5 -59 18 -29 110 140 457 562 459 559 2
-2 -14 -91 -36 -199 -39 -195 -68 -383 -60 -391 6 -7 219 78 219 87 0 4 -22 5
-48 1 -87 -11 -88 8 -16 365 57 284 114 398 232 468 26 15 42 32 42 44 0 28
-11 24 -72 -31 -52 -46 -169 -186 -497 -593 -79 -97 -144 -177 -146 -177 -1 0
-8 35 -14 78 -6 42 -26 139 -45 214 l-33 136 54 94 c62 108 103 228 103 299 0
40 -5 55 -25 74 -29 30 -32 30 -70 6z m29 -77 c11 -28 6 -108 -9 -158 -22 -74
-76 -186 -86 -180 -5 3 -9 56 -9 118 0 111 14 190 40 221 16 20 56 19 64 -1z"/>
<path d="M2253 934 c-3 -8 -1 -20 6 -27 14 -14 47 15 37 32 -10 16 -36 13 -43
-5z"/>
<path d="M2983 934 c-3 -8 -1 -20 6 -27 14 -14 47 15 37 32 -10 16 -36 13 -43
-5z"/>
<path d="M2185 814 c-73 -31 -79 -36 -35 -28 32 7 33 6 26 -20 -4 -15 -26 -71
-50 -124 -42 -94 -58 -138 -70 -194 l-6 -28 52 21 c61 23 82 39 44 32 -37 -8
-34 9 29 159 44 104 81 210 71 208 0 -1 -28 -12 -61 -26z"/>
<path d="M2355 805 c-42 -24 -54 -34 -38 -35 12 0 24 -4 27 -9 7 -11 -26 -107
-83 -238 -22 -51 -38 -93 -36 -93 29 0 58 27 79 74 35 78 91 164 144 219 46
47 82 61 82 32 0 -15 -71 -212 -104 -288 l-17 -39 23 7 c32 10 31 9 83 113 34
67 65 112 110 158 93 95 121 85 66 -24 -38 -76 -81 -197 -81 -228 0 -22 3 -24
23 -18 60 18 108 55 60 46 -24 -5 -26 -3 -20 25 3 16 33 89 67 163 63 137 68
167 28 155 -39 -11 -127 -76 -169 -123 -44 -51 -47 -48 -19 26 22 57 25 88 10
97 -20 12 -88 -29 -152 -93 -38 -36 -68 -64 -68 -62 0 3 8 28 19 55 16 45 34
115 28 115 -1 0 -29 -16 -62 -35z"/>
<path d="M2905 809 c-62 -25 -68 -31 -25 -23 32 7 33 6 26 -20 -4 -15 -26 -71
-50 -124 -42 -94 -58 -138 -70 -194 l-6 -28 52 21 c61 23 82 39 44 32 -38 -8
-34 9 30 161 55 129 75 197 58 195 -5 0 -31 -9 -59 -20z"/>
<path d="M3244 821 c-91 -22 -218 -130 -262 -223 -59 -126 -27 -196 79 -168
69 19 189 132 189 179 0 9 -16 -7 -35 -36 -46 -69 -87 -97 -144 -97 -40 -1
-46 2 -55 25 -20 56 60 218 127 259 40 25 107 27 107 4 0 -8 -5 -24 -10 -35
-6 -10 -7 -19 -3 -19 4 0 23 27 41 60 36 65 34 67 -34 51z"/>
<path d="M3375 799 c-65 -41 -72 -48 -41 -42 23 5 26 2 26 -23 -1 -16 -24 -93
-54 -170 -52 -141 -52 -141 -27 -135 21 6 32 24 61 97 64 165 136 254 204 254
26 0 36 5 41 21 4 11 4 23 1 27 -11 11 -72 -25 -129 -78 -31 -29 -57 -50 -57
-48 0 3 7 25 16 51 25 73 18 82 -41 46z"/>
<path d="M3849 792 c-24 -16 -79 -66 -121 -112 l-76 -83 14 59 c15 66 19 154
5 154 -9 0 -101 -50 -101 -54 0 -2 11 -1 25 2 24 4 25 3 25 -50 0 -29 -13
-106 -29 -171 -29 -121 -28 -148 5 -74 32 72 132 213 181 257 34 29 54 40 72
38 24 -3 26 -6 25 -53 -2 -89 -79 -208 -168 -260 -24 -13 -79 -30 -130 -39
-70 -12 -94 -20 -117 -42 -88 -84 -54 -189 61 -189 39 0 54 5 72 24 21 22 21
23 3 16 -68 -28 -161 -11 -171 31 -14 55 18 83 121 104 97 20 158 56 240 141
40 43 87 101 104 131 38 66 57 148 41 178 -14 27 -28 25 -81 -8z"/>
<path d="M3930 310 c0 -19 7 -20 225 -20 218 0 225 1 225 20 0 19 -7 20 -225
20 -218 0 -225 -1 -225 -20z"/>
</g>
</svg>
